<svg xmlns="http://www.w3.org/2000/svg" height="800" width="1200" viewBox="-44.4 -19.308575 384.8 115.85145"><path d="M36.4004 62.2148l-.2138.207c-3.4466 3.5115-7.4358 5.3725-11.5464 5.3725-8.5802 0-14.8086-6.4367-14.8086-15.318 0-8.8654 6.2284-15.3113 14.8086-15.3113 4.1106 0 8.0998 1.8687 11.5464 5.3896l.2138.213 5.5181-6.6722-.1475-.181c-4.589-5.423-10.0952-8.0628-16.8644-8.0628-6.7927 0-13.002 2.286-17.4772 6.4086C2.5672 38.7247 0 45.0209 0 52.4762c0 7.4517 2.5672 13.7634 7.4294 18.229 4.4751 4.1417 10.6845 6.4151 17.4772 6.4151 6.7692 0 12.2754-2.6384 16.8644-8.0635l.1475-.1684zm11.0941 13.9975h9.7483V28.6247h-9.7483zm47.9329-10.3476c-2.6007 1.5836-5.0212 2.3797-7.1947 2.3797-3.1494 0-4.5727-1.6623-4.5727-5.3649V37.6294h9.928v-8.9613H83.66v-14.807l-9.5547 5.1133v9.6937h-8.2426v8.9613h8.2426v26.8608c0 7.3183 4.335 12.3177 10.806 12.4476 4.394.0861 7.0428-1.2227 8.6515-2.1797l.0943-.07 2.3469-9.1756zm8.0738 10.3476h9.7547V28.6247h-9.7547zM268.7307 10.518v45.3935l3.0368-4.7266c-.0025.021 13.643-19.7385 15.3916-22.258h6.0814c-1.2946 1.7392-12.0232 16.5044-12.0232 16.5044S295.1925 74.5532 296 76.2123h-5.9719c-.3285-.6795-12.3341-26.0956-12.3341-26.0956l-8.9633 12.5588v13.5368h-5.5637v-62.517c.4866-.2794 4.2541-2.4392 5.5637-3.1773zm-45.704 24.0463c2.8698-4.2904 7.3663-6.656 12.6272-6.656 10.49 0 16.0493 6.6903 16.0493 19.3505v28.9535h-5.5775V48.4576c0-10.771-3.7401-15.7709-11.8421-15.7709-7.7545 0-12.3847 5.8981-12.3847 15.771v27.7546h-5.562V28.9269h5.562v7.3327zm-34.196-6.656c10.7946 0 16.0422 4.9363 16.0422 15.0937v33.2103h-5.5642v-6.8987l-1.0827 1.1939c-4.0948 4.5177-8.7948 6.7268-14.3913 6.7268-4.3853 0-14.5889-1.4514-14.5889-14.9127 0-11.003 9.0829-14.9084 17.5916-14.9084 4.2723 0 8.4926.9838 11.5555 2.7l.9158.5076v-6.7884c0-7.5264-3.6758-11.338-10.9395-11.338-4.4793 0-8.522 1.1305-12.6671 3.4668-.3658-.8403-1.6514-3.683-2.0093-4.4938 4.3323-2.2833 9.682-3.5591 15.1378-3.5591zm-14.129 33.95c0 7.0685 3.6625 10.964 10.3165 10.964 5.6636 0 10.6936-2.6756 14.1856-7.5414l.1049-.167V54.747l-.309-.179c-3.5515-2.0246-7.1888-2.8412-12.535-2.8412-7.3594 0-11.763 3.7865-11.763 10.1315zM131.7396 10.518v25.295l1.0773-1.1794c4.0975-4.5259 8.6332-6.7253 13.848-6.7253 10.4356 0 16.4254 8.698 16.4254 23.868 0 15.4643-6.803 25.458-17.3358 25.458-5.132 0-9.2414-1.991-12.932-6.2592l-1.0829-1.2603v6.4975h-5.5523v-62.517c.4727-.2794 4.2471-2.4392 5.5523-3.1773zm.1322 29.415l-.1322.1745v24.6143l.0994.151c3.069 4.7495 8.069 7.5895 13.3905 7.5895 8.2181 0 12.384-6.9268 12.384-20.5852 0-12.2014-4.6155-19.1904-12.6622-19.1904-4.8776 0-9.2785 2.437-13.0795 7.2462" fill="#003b70"/><path d="M119.0948 20.1809C110.1713 7.5412 95.3518 0 80.2742 0 65.2027 0 50.3804 7.5412 41.4716 20.1809l-.457.6504h11.236l.1245-.135c7.6475-7.893 17.6305-12.0672 27.8991-12.0672 10.27 0 20.251 4.1741 27.9132 12.0673l.1243.1349h11.2325z" fill="#d9261c" fill-rule="evenodd"/></svg>